<svg xmlns="http://www.w3.org/2000/svg" xmlns:xlink="http://www.w3.org/1999/xlink" viewBox="0 0 374.17 85.04" xmlns:v="https://vecta.io/nano"><path d="m82.32,0H0v85.04h82.32c5.35-13.81,7.8-28.9,7.85-42.97.05-15.29-2.73-29.47-7.85-42.07Z" fill="#ccd7e6"/><path d="M181.77 85.03H82.32c5.26-13.66 7.78-28.48 7.85-42.96.07-14.98-2.66-29.58-7.85-42.07h99.45v85.03z" fill="#036"/><path d="M139.19 15.22c0-.77.63-1.39 1.41-1.39h2.82c.78 0 1.41.62 1.41 1.39v25.46c0 .77-.64 1.4-1.41 1.4h-2.8c-.78 0-1.42-.62-1.42-1.39V30.2h-11.43v10.49c0 .77-.63 1.4-1.41 1.4h-2.81a1.4 1.4 0 0 1-1.41-1.4V15.22c0-.77.63-1.39 1.41-1.39h2.82c.78 0 1.41.62 1.41 1.39v10.24h11.42V15.22zm34.78-.02c.7-.77.8-1.4-.15-1.39l-4.17.03c-.78 0-1.52-.17-2.77 1.07L156.36 26.6V15.23c0-.77-.59-1.39-1.37-1.39h-2.86c-.78 0-1.41.62-1.41 1.39v25.46c0 .77.63 1.4 1.41 1.4h2.88c.78 0 1.36-.62 1.36-1.4v-5.93l4.84-5.35 6.99 11.28c.48.77 1.15 1.4 1.92 1.4h4.04c.78 0 1.02-.62.55-1.4l-9.7-15.5 8.96-9.98zm-69.35-1.37c-1.06 0-1.62.62-1.89 1.39l-8.74 25.46c-.26.77.15 1.4.93 1.4h2.8c.78 0 1.65-.62 1.91-1.4l1.85-5.73h9.61l1.86 5.73c.26.77 1.13 1.4 1.91 1.4h2.8c.78 0 1.19-.62.93-1.4l-8.74-25.46c-.26-.77-.82-1.39-1.89-1.39h-3.35zm1.13 6.49l3.19 9.87h-6.42l3.23-9.87z" fill="#fff" fill-rule="evenodd"/><path d="M198.5 25.36h-2.56V13.98h2.56c3.84 0 5.16 1.81 5.16 5.58s-1.19 5.81-5.16 5.81zm1.72-10.01c-.53-.23-1.14-.28-1.72-.28h-.74v9.2h.74c3.08 0 3.35-2.16 3.35-4.72 0-1.42-.12-3.53-1.63-4.21z"/><use xlink:href="#B"/><path d="M218.4 25.36V23.5h-.03c-.53 1.15-1.39 2.05-2.74 2.05s-1.98-1.07-1.98-2.29v-5.74h1.67v4.92c0 .69.03 1.88.99 1.88 1.55 0 2.11-2.33 2.11-3.55v-3.25h1.67v7.85h-1.68zm6.47-6.99v4.52c0 .96.02 1.72 1.19 1.72.26 0 .53-.03.78-.13v.96c-.38.1-.78.12-1.16.12-1.43 0-2.47-.38-2.47-2v-5.18h-1.25v-.86h1.25v-1.85l1.67-1.01v2.85h2.14v.86h-2.14zm5.26 7.17c-.73 0-1.4-.12-2.09-.35v-1.53c.64.45 1.37.82 2.18.82.61 0 1.35-.26 1.35-.99 0-1.39-3.55-1.67-3.55-3.91 0-1.6 1.3-2.26 2.75-2.26.63 0 1.24.13 1.85.31v1.42c-.61-.41-1.22-.78-1.98-.78-.51 0-1.12.21-1.12.82 0 1.42 3.6 1.55 3.6 4.06 0 1.77-1.43 2.38-2.99 2.38zm8.93-5.48c0-.81-.05-2.05-1.14-2.05-1.2 0-1.45 1.65-1.45 2.54 0 1.73.71 4.11 2.82 4.11.48 0 .96-.12 1.4-.3v.78c-.68.25-1.39.4-2.09.4-2.77 0-3.94-1.81-3.94-4.42 0-2.21.96-3.79 3.33-3.79 1.85 0 2.82.87 2.82 2.74h-1.75zm8.15 5.3v-4.92c0-.69-.03-1.88-.99-1.88-1.55 0-2.11 2.33-2.11 3.55v3.25h-1.67V13.98h1.67v5.39h.03c.53-1.15 1.4-2.04 2.75-2.04s1.98 1.07 1.98 2.29v5.74h-1.67z"/><use xlink:href="#B" x="45.68"/><path d="M202.39 41.86l-1.04-3.38h-3.92l-1.04 3.38h-1.6l3.79-11.38h1.88l3.81 11.38h-1.88zm-2.97-9.75h-.03l-1.62 5.28h3.25l-1.6-5.28zm11.16 9.75V40h-.03c-.53 1.15-1.39 2.05-2.74 2.05s-1.98-1.07-1.98-2.29v-5.74h1.67v4.92c0 .69.03 1.88.99 1.88 1.55 0 2.11-2.33 2.11-3.55v-3.25h1.67v7.85h-1.68z"/><use xlink:href="#C"/><path d="M221.19 41.86V30.48h1.67v11.38h-1.67z"/><use xlink:href="#D"/><use xlink:href="#E"/><use xlink:href="#F"/><use xlink:href="#C" x="36.94"/><path d="M262.83 41.86v-4.92c0-.69-.03-1.88-.99-1.88-1.55 0-2.11 2.33-2.11 3.55v3.25h-1.67V30.48h1.67v5.39h.03c.53-1.15 1.4-2.04 2.75-2.04s1.98 1.07 1.98 2.29v5.74h-1.67z"/><use xlink:href="#D" x="41.55"/><use xlink:href="#E" x="41.54"/><use xlink:href="#F" x="41.55"/><use xlink:href="#G"/><path d="M300.96 41.86V30.48h1.67v11.38h-1.67z"/><use xlink:href="#C" x="90.47"/><path d="M316.14 41.86l-2.87-3.93h-.03v3.93h-1.67V30.48h1.67v6.71l2.72-3.18h1.9l-3.05 3.4 3.46 4.45h-2.13z"/><use xlink:href="#D" x="94.15"/><use xlink:href="#H"/><use xlink:href="#H" x="13.04"/><use xlink:href="#G" x="60.87"/><path d="m363.42,38.26v3.6h-1.67v-7.85h1.67v2h.03c.56-1.14,1.15-2.06,2.54-2.18v1.73c-1.85.05-2.57.84-2.57,2.71Z"/><use xlink:href="#E" x="134.03"/><path d="M202.1 50.05c0-1.2-.58-2.39-2.26-2.39-2.41 0-2.89 2.71-2.89 4.78 0 2.47.59 5.25 3.3 5.25 1.1 0 1.63-.43 1.95-.73V52.9h-2.62v-.94h3.99v5.48c-.73.68-2.01 1.11-3.45 1.11-3.37 0-4.64-2.56-4.64-6.02 0-2.92.97-5.72 4.32-5.72 3.1 0 3.88 2.13 3.88 3.25h-1.58z"/><use xlink:href="#I"/><path d="m216.86,51.76c-1.71,0-2.21,1.45-2.21,2.89v3.71h-1.22v-7.85h1.22v1.86h.03c.38-.86,1.25-2.04,2.52-2.04v1.44h-.35Z"/><use xlink:href="#J"/><use xlink:href="#K"/><path d="M243.76 58.36v-5.08c0-.84 0-1.95-1.09-1.95-1.65 0-2.39 2.14-2.39 3.66v3.37h-1.22v-7.85h1.19v1.93h.03c.48-.99 1.27-2.11 2.82-2.11 1.37 0 1.88 1.19 1.88 2.06v5.97h-1.22zm13.84-8.3c0-1.04-.43-2.41-2.06-2.41-2.34 0-2.67 2.94-2.67 4.6 0 2.71.79 5.31 3.27 5.31 1.42 0 2.03-.59 2.64-1.06v1.29a5.65 5.65 0 0 1-2.79.74c-3.51 0-4.59-3.07-4.59-6.09 0-2.16.76-5.66 4.24-5.66 2.33 0 3.58 1.53 3.58 3.27h-1.62zm7.84 8.3V53.1c0-.91-.17-1.77-1.17-1.77-1.47 0-2.31 2.11-2.31 3.55v3.48h-1.22V46.98h1.22v5.64h.03c.23-.63 1.02-2.29 2.66-2.29 1.02 0 2.01.64 2.01 2.23v5.81h-1.22z"/><use xlink:href="#K" x="37.85"/><use xlink:href="#J" x="57.98"/><path d="m292.28,58.54c-3.08,0-3.08-2.69-3.08-3.96v-7.6h1.22v4.95h.03c.23-.48.89-1.6,2.28-1.6,1.86,0,2.87,1.63,2.87,4.16,0,2.74-1.27,4.06-3.32,4.06Zm.13-7.42c-1.5,0-2,2.14-2,3.58s.28,3.05,1.85,3.05,1.96-1.6,1.96-3.18-.36-3.45-1.81-3.45Z"/><use xlink:href="#I" x="91.63"/><path d="M308.49 51.76c-1.72 0-2.21 1.45-2.21 2.89v3.71h-1.22v-7.85h1.22v1.86h.03c.38-.86 1.25-2.04 2.52-2.04v1.44h-.35zm3.02 6.78c-1.07 0-1.75-.18-2.13-.33v-1.24c.17.1 1.17.74 2.19.74.91 0 1.65-.38 1.65-1.27 0-.79-.76-1.1-1.68-1.65-.99-.58-2.13-.99-2.13-2.33s.91-2.14 2.69-2.14c.82 0 1.52.21 1.83.28v1.17c-.26-.15-1.07-.63-2-.63-.71 0-1.35.3-1.35.94 0 .94 1.14 1.2 2.51 2.03.76.45 1.35.99 1.35 2.09 0 1.22-.87 2.33-2.94 2.33z"/><use xlink:href="#L"/><path d="M207.69 64.22c-1.47 0-1.6 1.02-1.6 1.83v.96h2.28v.76h-2.28v7.09h-1.22v-7.09h-1.45v-.76h1.45v-.51c0-1.62.25-3.07 2.75-3.07.64 0 1.04.1 1.34.15v.97c-.35-.15-.73-.33-1.27-.33zm12.16 2.34c0-1.04-.43-2.41-2.06-2.41-2.34 0-2.67 2.94-2.67 4.6 0 2.71.79 5.31 3.27 5.31 1.42 0 2.03-.59 2.64-1.06v1.29a5.65 5.65 0 0 1-2.79.74c-3.51 0-4.59-3.07-4.59-6.09 0-2.16.76-5.66 4.24-5.66 2.33 0 3.58 1.53 3.58 3.27h-1.62z"/><use xlink:href="#L" x="27.03"/><use xlink:href="#M"/><use xlink:href="#M" x="12.67"/><use xlink:href="#N"/><use xlink:href="#O"/><path d="m272.65,69.43c0-.63,0-1.95-1.37-1.95s-1.75,1.6-1.75,2.9c0,1.68.71,3.86,2.99,3.86.64,0,.89-.1,1.34-.21v.73c-.58.18-1.07.28-1.76.28-2.94,0-3.93-1.9-3.93-4.36s1.27-3.86,3.2-3.86,2.71,1.19,2.71,2.61h-1.42Z"/><use xlink:href="#N" x="19.58"/><path d="M294 74.86l-1.17-3.6h-4.19l-1.15 3.6h-1.24l3.83-11.38h1.5l3.84 11.38H294zm-3.25-10.09h-.03l-1.8 5.59h3.61l-1.78-5.59zm9.01 10.27c-3.08 0-3.08-2.69-3.08-3.96v-7.6h1.22v4.95h.03c.23-.48.89-1.6 2.28-1.6 1.86 0 2.87 1.63 2.87 4.16 0 2.74-1.27 4.06-3.32 4.06zm.13-7.42c-1.5 0-2 2.14-2 3.58s.28 3.05 1.85 3.05 1.96-1.6 1.96-3.18-.36-3.45-1.81-3.45z"/><use xlink:href="#O" x="41.58"/><use xlink:href="#L" x="114.36"/><path d="M322.36 74.86v-1.11h-.03c-.23.38-.96 1.29-2.26 1.29s-2.13-.92-2.13-1.98c0-2.31 2.95-2.42 4.42-2.51v-1.04c0-.84-.1-2.03-1.4-2.03s-1.34.97-1.38 1.57h-1.42c.08-.96.56-2.23 2.85-2.23s2.57 1.5 2.57 2.62v5.41h-1.22zm0-3.65c-.43.03-3.1 0-3.1 1.68 0 .84.53 1.32 1.24 1.32.99 0 1.86-.92 1.86-2.14v-.86zm8.24 3.65v-1.52h-.03c-.17.53-.82 1.7-2.28 1.7-2.11 0-2.66-2-2.66-4.09 0-2.24.84-4.12 2.82-4.12 1.47 0 1.93 1.11 2.11 1.58h.03v-4.93h1.22v11.38h-1.22zm-1.93-7.24c-1.29 0-1.67 1.76-1.67 3.41 0 1.53.31 3.18 1.57 3.18s2.03-1.47 2.03-3.43c0-.92-.46-3.17-1.93-3.17z"/><defs ><path id="B" d="m206.91,20.54c0,1.86.87,4.12,3.05,4.12.51,0,1.02-.12,1.5-.33v.76c-.79.33-1.44.45-2.29.45-2.72,0-3.93-1.9-3.93-4.45,0-2.24.94-3.76,3.35-3.76,2.13,0,3.02,1.2,3.02,3.22h-4.7Zm1.62-2.52c-1.01,0-1.5.86-1.57,1.77h3.02c0-.92-.41-1.77-1.45-1.77Z"/><path id="C" d="m216.34,42.04c-.73,0-1.4-.12-2.09-.35v-1.53c.64.45,1.37.82,2.18.82.61,0,1.35-.26,1.35-.99,0-1.39-3.55-1.67-3.55-3.91,0-1.6,1.3-2.26,2.75-2.26.63,0,1.24.13,1.85.31v1.42c-.61-.41-1.22-.78-1.98-.78-.51,0-1.12.21-1.12.82,0,1.42,3.6,1.55,3.6,4.06,0,1.77-1.43,2.38-2.99,2.38Z"/><path id="D" d="M229.45 41.86v-1.09h-.03a2.54 2.54 0 0 1-2.21 1.27c-1.12 0-2.14-.78-2.14-1.96 0-2.21 2.72-2.51 4.39-2.59v-.69c0-.79.02-2.28-1.1-2.28-1.06 0-1.22.86-1.27 1.72h-1.75c.13-1.83 1.27-2.41 3.02-2.41 2.18 0 2.77.96 2.77 2.97v5.06h-1.67zm0-3.68c-1.02.07-2.57.33-2.57 1.65 0 .58.31 1.17.96 1.17.21 0 .45-.07.63-.16.66-.35.99-1.01.99-1.73v-.92z"/><path id="E" d="m238.48,41.86v-4.92c0-.69-.03-1.88-.99-1.88-1.55,0-2.11,2.33-2.11,3.55v3.25h-1.67v-7.85h1.67v1.86h.03c.53-1.15,1.4-2.04,2.75-2.04s1.98,1.07,1.98,2.29v5.74h-1.67Z"/><path id="F" d="m247.24,41.86v-1.29h-.03c-.38.87-1.06,1.47-2.04,1.47-2.41,0-2.95-2.1-2.95-4.11s.63-4.11,2.95-4.11c.97,0,1.6.43,2.04,1.27h.03v-4.62h1.67v11.38h-1.67Zm-1.63-7.08c-1.42,0-1.58,2.13-1.58,3.15s.15,3.05,1.58,3.05,1.57-2,1.57-3.05-.03-3.15-1.57-3.15Z"/><path id="G" d="m294.15,37.04c0,1.86.87,4.12,3.05,4.12.51,0,1.02-.12,1.5-.33v.76c-.79.33-1.43.45-2.29.45-2.72,0-3.93-1.9-3.93-4.45,0-2.24.94-3.76,3.35-3.76,2.13,0,3.02,1.2,3.02,3.22h-4.7Zm1.62-2.52c-1.01,0-1.5.86-1.57,1.77h3.02c0-.92-.41-1.77-1.45-1.77Z"/><path id="H" d="M336.6 41.86V36.8c0-.68-.03-1.73-.96-1.73-1.43 0-1.75 2.47-1.75 3.53v3.27h-1.67v-4.92c0-.73.02-1.88-.99-1.88-1.47 0-1.71 2.47-1.71 3.55v3.25h-1.67v-7.85h1.67v1.86h.03c.33-1.07 1.19-2.04 2.38-2.04s1.88.84 1.95 1.95h.03c.48-1.06 1.07-1.95 2.38-1.95 1.65 0 1.98 1.34 1.98 2.71v5.33h-1.67z"/><path id="I" d="m206.83,53.49c0,1.73.59,4.26,3.02,4.26.71,0,.97-.12,1.43-.23v.71c-.64.18-1.06.31-1.95.31-2.34,0-3.88-1.45-3.88-4.34,0-2.24.89-3.88,3.18-3.88,2.79,0,2.79,2.52,2.79,3.17h-4.6Zm1.73-2.51c-1.4,0-1.7,1.35-1.7,1.78h3.3c0-.68-.2-1.78-1.6-1.78Z"/><path id="J" d="m227.6,58.36v-5.28c0-.61,0-1.75-1.11-1.75-1.4,0-2.01,2.21-2.01,3.5v3.53h-1.22v-5.08c0-.84,0-1.95-1.09-1.95-1.4,0-2.03,2.14-2.03,3.66v3.37h-1.22v-7.85h1.19v1.93h.03c.41-.99,1.09-2.11,2.46-2.11s1.88,1.19,1.88,2.06h.03c.2-.54.91-2.06,2.41-2.06,1.27,0,1.9.92,1.9,2.21v5.82h-1.22Z"/><path id="K" d="m235.23,58.36v-1.11h-.03c-.23.38-.96,1.29-2.26,1.29s-2.13-.92-2.13-1.98c0-2.31,2.95-2.42,4.42-2.51v-1.04c0-.84-.1-2.03-1.4-2.03s-1.34.97-1.38,1.57h-1.42c.08-.96.56-2.23,2.85-2.23s2.57,1.5,2.57,2.62v5.41h-1.22Zm0-3.65c-.43.03-3.1,0-3.1,1.68,0,.84.53,1.32,1.24,1.32.99,0,1.86-.92,1.86-2.14v-.86Z"/><path id="L" d="m198.73,75.04c-2.34,0-3.33-1.49-3.33-4.03s.99-4.19,3.33-4.19,3.41,1.68,3.41,4.19-1.07,4.03-3.41,4.03Zm0-7.55c-1.68,0-1.96,1.86-1.96,3.58,0,1.62.28,3.32,1.96,3.32s2.04-1.7,2.04-3.32c0-1.72-.35-3.58-2.04-3.58Z"/><path id="M" d="m239.83,74.86v-5.28c0-.61,0-1.75-1.11-1.75-1.4,0-2.01,2.21-2.01,3.5v3.53h-1.22v-5.08c0-.84,0-1.95-1.09-1.95-1.4,0-2.03,2.14-2.03,3.66v3.37h-1.22v-7.85h1.19v1.93h.03c.41-.99,1.09-2.11,2.46-2.11s1.88,1.19,1.88,2.06h.03c.2-.54.91-2.06,2.41-2.06,1.27,0,1.9.92,1.9,2.21v5.82h-1.22Z"/><path id="N" d="m256.96,69.99c0,1.73.59,4.26,3.02,4.26.71,0,.97-.12,1.43-.23v.71c-.64.18-1.06.31-1.95.31-2.34,0-3.88-1.45-3.88-4.34,0-2.24.89-3.88,3.18-3.88,2.79,0,2.79,2.52,2.79,3.17h-4.6Zm1.73-2.51c-1.4,0-1.7,1.35-1.7,1.78h3.3c0-.68-.2-1.78-1.6-1.78Z"/><path id="O" d="m266.99,68.26c-1.71,0-2.21,1.45-2.21,2.89v3.71h-1.22v-7.85h1.22v1.86h.03c.38-.86,1.25-2.04,2.52-2.04v1.44h-.35Z"/></defs></svg>