<?xml version="1.0" encoding="UTF-8" standalone="no"?>
<!-- Generator: Adobe Illustrator 21.0.0, SVG Export Plug-In . SVG Version: 6.00 Build 0)  -->

<svg
   version="1.1"
   id="Layer_1"
   x="0px"
   y="0px"
   viewBox="0 0 162 48"
   style="enable-background:new 0 0 162 48;"
   xml:space="preserve"
   sodipodi:docname="logo.svg"
   inkscape:version="1.1.2 (b8e25be8, 2022-02-05)"
   xmlns:inkscape="http://www.inkscape.org/namespaces/inkscape"
   xmlns:sodipodi="http://sodipodi.sourceforge.net/DTD/sodipodi-0.dtd"
   xmlns="http://www.w3.org/2000/svg"
   xmlns:svg="http://www.w3.org/2000/svg"><defs
   id="defs65"><linearGradient
     id="linearGradient1025"
     inkscape:swatch="solid"><stop
       style="stop-color:#000000;stop-opacity:1;"
       offset="0"
       id="stop1023" /></linearGradient><linearGradient
     id="linearGradient1019"
     inkscape:swatch="solid"><stop
       style="stop-color:#383d49;stop-opacity:1;"
       offset="0"
       id="stop1017" /></linearGradient><linearGradient
     id="linearGradient1013"
     inkscape:swatch="solid"><stop
       style="stop-color:#383d49;stop-opacity:1;"
       offset="0"
       id="stop1011" /></linearGradient></defs><sodipodi:namedview
   id="namedview63"
   pagecolor="#ffffff"
   bordercolor="#666666"
   borderopacity="1.0"
   inkscape:pageshadow="2"
   inkscape:pageopacity="0.0"
   inkscape:pagecheckerboard="0"
   showgrid="false"
   inkscape:zoom="6.6851852"
   inkscape:cx="52.279778"
   inkscape:cy="25.803324"
   inkscape:window-width="1296"
   inkscape:window-height="1081"
   inkscape:window-x="353"
   inkscape:window-y="25"
   inkscape:window-maximized="0"
   inkscape:current-layer="Layer_1" />
<style
   type="text/css"
   id="style2">
	.st0{fill:#f7b93f;}
	.st1{fill:none;}
	.st2{fill:#383d49;}
	.st3{fill:#383d49;stroke:#383d49;stroke-miterlimit:10;}
	.st4{fill:#383d49;}
	.st5{font-family:'MyriadPro-Bold';}
	.st6{font-size:8.1px;}
</style>
<title
   id="title4">bcr_logo</title>
<path
   class="st0"
   d="M29.7,37.2c-7.8,0-14-5.6-14-12.6c0-0.3,0-0.5,0-0.8c0.1-0.9,0.2-1.8,0.5-2.7c1.7-5.2,7.1-9.1,13.5-9.1  c0.6,0,1.2,0,1.8,0.1c1.7,0.2,3.4,0.7,5,1.4c-0.5-2.3-1.9-4.4-3.8-5.9C30.3,5.9,27.4,5,24.4,5H6v19.5l0,0V44h18.3  c0.7,0,1.4,0,2.1-0.1l0,0l0.5-0.1l0.3-0.1h0.1l0.8-0.2h0.1l0.4-0.1h0.1c3.5-0.9,6.4-3.5,7.5-7c0.1-0.2,0.1-0.5,0.2-0.7  c-0.7,0.3-1.3,0.6-2,0.8C32.8,37,31.3,37.2,29.7,37.2z"
   id="path6" />
<path
   class="st1"
   d="M32.5,28.8L32.5,28.8z"
   id="path8" />
<path
   class="st1"
   d="M38.3,31.4c-0.4-0.5-1-0.9-1.5-1.2C37.3,30.6,37.8,31,38.3,31.4z"
   id="path10" />
<path
   class="st0"
   d="M38.9,32.9"
   id="path12" />
<path
   class="st0"
   d="M38.9,34.1v5.3c0,0.7,0.1,1.5,0.4,2.2l0.1,0.3l0,0c0.7,1.3,1.9,2.1,3.3,2.1h9.4v-10c0.1-2.2-1-4.2-2.9-5.3  c-0.4-0.3-0.9-0.5-1.3-0.7c-0.6-0.3-1.2-0.5-1.9-0.7c-0.2,0-0.4-0.2-0.4-0.4c0-0.2,0.1-0.3,0.3-0.4h0.3c2-0.4,3.9-1.5,5.2-3.2  c0.4-0.7,0.8-1.4,1.1-2.2c1.6-4,0.5-8.6-2.7-11.5C46.9,7.1,41.9,5,33.6,5c0,0,5.8,2.4,6.7,8.3c0.2,1.2,0.1,2.4-0.4,3.6l-0.1,0.2l0,0  c-1.1,2.2-3.4,3.6-5.9,3.6H30c-2.3-0.1-4.3,1.6-4.5,3.9c0,0,0,0,0,0.1c0,1.1,0.5,2,1.3,2.7c0.5,0.5,1.2,0.8,1.9,1l0,0  c0.4,0.1,0.7,0.1,1.1,0.1l0,0H31c0.5,0,1,0.1,1.4,0.1h0.1c1.4,0.2,2.8,0.7,4.1,1.5l0,0c1.1,0.6,1.9,1.7,2.1,3  C38.9,33.5,38.9,33.8,38.9,34.1z"
   id="path14" />
<path
   class="st2"
   d="M31.1,28.6c0.5,0,1,0.1,1.4,0.1C32,28.7,31.6,28.6,31.1,28.6z"
   id="path16" />
<path
   class="st3"
   d="M85.6,20.6c0.7,0.4,1.3,1,1.8,1.7c0.5,0.7,0.7,1.6,0.7,2.5c0,1-0.2,2-0.8,2.9c-0.6,0.8-1.4,1.5-2.3,1.8  c-1.2,0.5-2.4,0.8-3.6,1c-1.6,0.2-3.2,0.3-4.8,0.3H63.7v-1.2l1.4-0.1c0.4,0,0.8-0.1,1.2-0.2c0.4-0.1,0.7-0.3,0.9-0.6  c0.2-0.3,0.3-0.7,0.2-1V11.9c0-0.3-0.1-0.6-0.2-0.9c-0.2-0.3-0.5-0.6-0.9-0.7c-0.4-0.1-0.8-0.3-1.3-0.3l-1.3-0.2V8.6h13.4  c3.4,0,5.8,0.4,7.3,1.3c1.4,0.7,2.3,2.1,2.3,3.7c0,0.7-0.2,1.4-0.5,2c-0.4,0.6-0.9,1.1-1.4,1.5c-0.6,0.4-1.3,0.8-2,1  c-0.8,0.3-1.7,0.5-2.6,0.7V19c1,0.1,1.9,0.3,2.8,0.5C84,19.8,84.8,20.1,85.6,20.6z M80,13.9c0.1-1.1-0.4-2.1-1.2-2.9  c-1-0.7-2.2-1.1-3.5-1h-0.9h-0.9v8.2h0.9c1.5,0.1,2.9-0.3,4.1-1.2C79.5,16.3,80,15.1,80,13.9L80,13.9z M81.2,24.6  c0.1-1.4-0.5-2.7-1.5-3.6c-1.3-0.9-2.8-1.3-4.4-1.2h-0.9h-0.8v8.1c0.2,0.5,0.5,0.8,1,1c0.6,0.3,1.3,0.4,2,0.4  c2.4,0.2,4.5-1.7,4.7-4.1C81.3,25,81.3,24.8,81.2,24.6L81.2,24.6z"
   id="path18"
   style="fill:#ffffff;stroke:none" />
<path
   class="st3"
   d="M109.8,31.4c-1.7,0-3.4-0.3-5.1-0.8c-1.5-0.5-2.9-1.3-4.1-2.3c-1.2-1-2.1-2.2-2.7-3.6c-0.7-1.5-1-3.1-1-4.8  c0-3.3,1.4-6.4,3.8-8.6c1.2-1.1,2.7-1.9,4.3-2.4c1.7-0.6,3.5-0.9,5.3-0.9c1.3,0,2.5,0.1,3.8,0.4c1,0.2,1.9,0.6,2.9,1l1.1-0.9h1.5  l0.2,8.1h-1.5c-0.6-2-1.7-3.9-3.1-5.4c-1.2-1.2-2.8-1.8-4.5-1.7c-2-0.1-3.9,0.9-5,2.6c-1.3,2.2-1.9,4.7-1.7,7.3  c0,1.5,0.2,3.1,0.6,4.5c0.3,1.1,0.8,2.1,1.5,3c0.6,0.8,1.5,1.4,2.4,1.8c2.4,0.9,5.2,0.7,7.4-0.6c1.4-0.9,2.6-2.2,3.5-3.6l1.5,0.8  c-0.5,0.9-1,1.7-1.7,2.5c-0.6,0.7-1.4,1.4-2.2,1.9c-0.9,0.6-1.9,1-3,1.3C112.5,31.2,111.2,31.4,109.8,31.4z"
   id="path20"
   style="fill:#ffffff;stroke:none" />
<path
   class="st4"
   d="M146.7,30.3c-1.6-2.2-2.9-3.9-4-5.2s-2.5-2.9-4.1-4.7l-0.1-0.2h-1.7v7.3c0,0.4,0.1,0.8,0.3,1.2  c0.3,0.4,0.7,0.7,1.1,0.9c0.4,0.1,0.7,0.2,1.1,0.3l0.8,0.1v0.3H128V30l0.9-0.1c0.4,0,0.9-0.1,1.3-0.2c0.5-0.1,0.9-0.4,1.1-0.9  c0.2-0.4,0.3-0.8,0.3-1.2V11.9c0-0.4-0.1-0.8-0.3-1.2c-0.3-0.4-0.7-0.8-1.2-0.9c-0.5-0.2-0.9-0.3-1.4-0.4L128,9.4V9.1h13.4  c2.3-0.1,4.7,0.3,6.8,1.3c1.4,0.6,2.2,2,2.1,3.5c0.1,1.3-0.4,2.5-1.3,3.4c-1.2,1-2.7,1.8-4.3,2.1l-0.8,0.2l0.5,0.6l2.8,3.2  c1.1,1.2,2.2,2.5,3.3,3.7c0.4,0.4,0.9,0.9,1.5,1.5c0.5,0.5,1.2,1,1.9,1.2c0.4,0.1,0.7,0.2,1.1,0.2l0.4,0v0.3L146.7,30.3z   M136.8,19.8h1.8c1.5,0.1,3.1-0.4,4.3-1.3c1.1-1.1,1.7-2.6,1.6-4.2c0.1-1.4-0.5-2.8-1.6-3.7c-1.3-0.8-2.8-1.2-4.3-1.1h-1.9V19.8z"
   id="path22"
   style="fill:#ffffff" />
<path
   class="st4"
   d="M136.4,9.6v17.9c0,0.5,0.1,1,0.4,1.5c0.2,0.3,0.5,0.6,0.8,0.8h-6.4c0.3-0.2,0.5-0.4,0.7-0.7  c0.3-0.5,0.4-1,0.4-1.5V11.9c0-0.5-0.1-1-0.3-1.4c-0.2-0.4-0.6-0.8-1.1-1L136.4,9.6 M142.1,9.5c2-0.1,4,0.3,5.9,1.2  c1.2,0.5,1.9,1.8,1.9,3.1c0.1,1.1-0.4,2.2-1.2,3c-1.2,1-2.6,1.7-4.1,2l-1.6,0.4l1,1.2l2.8,3.2c1.1,1.2,2.2,2.5,3.3,3.7  c0.4,0.4,0.9,1,1.5,1.6c0.3,0.3,0.7,0.6,1.1,0.9h-5.8c-1.5-2.1-2.8-3.8-3.8-5s-2.4-2.8-3.9-4.5c1.5,0,2.9-0.5,4.1-1.4  c1.2-1.2,1.9-2.9,1.8-4.6c0.1-1.6-0.5-3.1-1.7-4.1C142.9,10,142.5,9.7,142.1,9.5 M141.4,8.6h-13.9v1.2l1.2,0.2  c0.4,0.1,0.9,0.2,1.3,0.3c0.4,0.1,0.7,0.3,0.9,0.7c0.1,0.3,0.2,0.6,0.2,0.9v15.7c0,0.3-0.1,0.7-0.2,1c-0.2,0.3-0.5,0.5-0.9,0.6  c-0.4,0.1-0.8,0.2-1.2,0.2l-1.3,0.1v1.2h13.2v-1.2c-0.3,0-0.7-0.1-1.2-0.2c-0.3-0.1-0.7-0.1-1-0.3c-0.4-0.1-0.7-0.3-0.9-0.7  c-0.2-0.3-0.3-0.7-0.2-1v-6.7h1c1.6,1.8,3,3.3,4.1,4.6c1.1,1.3,2.4,3.1,4.1,5.4h9.5v-1.2l-0.9-0.1c-0.3,0-0.7-0.1-1-0.2  c-0.7-0.2-1.3-0.6-1.7-1.1c-0.6-0.6-1.1-1.1-1.5-1.5c-1.1-1.3-2.2-2.5-3.3-3.7l-2.8-3.2c1.7-0.4,3.2-1.1,4.5-2.2  c1-1,1.6-2.3,1.5-3.8c0.1-1.7-0.9-3.3-2.4-4C146.3,8.8,143.8,8.4,141.4,8.6L141.4,8.6z M137.4,19.3V10h1.4c1.4-0.1,2.8,0.2,4,1  c1,0.8,1.5,2,1.4,3.3c0.1,1.4-0.4,2.9-1.5,3.8c-1.1,0.9-2.6,1.3-4,1.2H137.4z"
   id="path24"
   style="fill:#ffffff;stroke:none" />
<text
   transform="matrix(1 0 0 1 62.57 42.02)"
   class="st4 st5 st6"
   id="text26"
   style="fill:#ffffff">B</text>
<text
   transform="matrix(1 0 0 1 68.15 42.02)"
   class="st4 st5 st6"
   id="text28"
   style="fill:#ffffff">r</text>
<text
   transform="matrix(1 0 0 1 71.91 42.02)"
   class="st4 st5 st6"
   id="text30"
   style="fill:#ffffff">i</text>
<text
   transform="matrix(1 0 0 1 75.61 42.02)"
   class="st4 st5 st6"
   id="text32"
   style="fill:#ffffff">d</text>
<text
   transform="matrix(1 0 0 1 81.31 42.02)"
   class="st4 st5 st6"
   id="text34"
   style="fill:#ffffff">g</text>
<text
   transform="matrix(1 0 0 1 86.03 42.02)"
   class="st4 st5 st6"
   id="text36"
   style="fill:#ffffff">e </text>
<text
   transform="matrix(1 0 0 1 93.51 42.02)"
   class="st4 st5 st6"
   id="text38"
   style="fill:#ffffff">T</text>
<text
   transform="matrix(1 0 0 1 98.68 42.02)"
   class="st4 st5 st6"
   id="text40"
   style="fill:#ffffff">h</text>
<text
   transform="matrix(1 0 0 1 104.21 42.02)"
   class="st4 st5 st6"
   id="text42"
   style="fill:#ffffff">e </text>
<text
   transform="matrix(1 0 0 1 111.68 42.02)"
   class="st4 st5 st6"
   id="text44"
   style="fill:#ffffff">D</text>
<text
   transform="matrix(1 0 0 1 118.14 42.02)"
   class="st4 st5 st6"
   id="text46"
   style="fill:#ffffff">i</text>
<text
   transform="matrix(1 0 0 1 121.13 42.02)"
   class="st4 st5 st6"
   id="text48"
   style="fill:#ffffff">ff</text>
<text
   transform="matrix(1 0 0 1 127.05 42.02)"
   class="st4 st5 st6"
   id="text50"
   style="fill:#ffffff">e</text>
<text
   transform="matrix(1 0 0 1 132.14 42.02)"
   class="st4 st5 st6"
   id="text52"
   style="fill:#ffffff">r</text>
<text
   transform="matrix(1 0 0 1 135.91 42.02)"
   class="st4 st5 st6"
   id="text54"
   style="fill:#ffffff">e</text>
<text
   transform="matrix(1 0 0 1 141.01 42.02)"
   class="st4 st5 st6"
   id="text56"
   style="fill:#ffffff">n</text>
<text
   transform="matrix(1 0 0 1 146.53 42.02)"
   class="st4 st5 st6"
   id="text58"
   style="fill:#ffffff">c</text>
<text
   transform="matrix(1 0 0 1 150.99 42.02)"
   class="st4 st5 st6"
   id="text60"
   style="fill:#ffffff">e</text>
</svg>
