<svg width="106" height="40" viewBox="0 0 106 40" fill="none" xmlns="http://www.w3.org/2000/svg">
<path d="M30.049 14.1322C31.5796 14.1322 34.4357 14.1298 34.4357 14.1298H34.9722C34.9722 14.1298 34.9722 15.6134 34.9722 16.056C35.0464 16.0783 35.1181 16.103 35.1923 16.1253C35.3258 16.014 35.4792 15.9176 35.5929 15.789C37.0963 14.0927 38.8866 13.425 41.1887 13.8726C42.6699 14.1594 45.6718 14.1026 47.195 14.1496V15.2009V15.6357C50.6198 12.7079 53.7824 13.0665 56.7547 16.3676C58.535 14.4389 60.5132 13.1703 63.342 13.885C65.8618 14.5205 66.9968 15.9497 67.3331 19.6489C68.29 17.013 69.6352 14.9606 72.2687 14.0704C74.8848 13.1852 77.2067 13.7589 79.3333 15.4477C79.4273 15.3167 79.5163 15.2499 79.5311 15.1683C79.6597 14.5007 80.0768 14.1677 80.7823 14.1693C81.7294 14.1693 82.674 14.1669 83.621 14.1644C84.5533 14.1619 84.5656 14.1619 84.5533 15.1238C84.5261 17.4037 84.4543 19.6811 84.4568 21.961C84.4568 24.4114 84.573 26.8595 84.5359 29.3075C84.5211 30.3337 84.3629 31.3945 84.0513 32.3712C83.401 34.4112 81.8431 35.66 79.9094 36.3746C76.8779 37.4923 73.8339 37.4131 70.8716 36.0803C69.6747 35.5413 68.7475 34.6634 68.0477 33.5359C67.7608 33.0735 67.8152 32.7916 68.3024 32.5666C69.2445 32.1264 71.5756 30.7647 71.5756 30.7647L72.1351 31.4118C73.416 32.6853 75.0159 32.9622 76.7097 32.6828C78.8338 32.3316 79.9886 30.3757 79.4643 28.0884C77.3131 29.5523 74.9936 29.9232 72.506 29.1962C69.9641 28.4544 68.5274 26.585 67.5704 24.2161L67.3603 24.2928C67.3405 24.5524 67.3009 24.812 67.3009 25.0717C67.296 26.2091 67.3059 28.9885 67.3059 28.9885H66.7025L63.2085 28.9934L62.3628 28.9885C62.3628 28.9885 62.3851 22.9575 62.3678 20.3611C62.3579 18.7167 61.2773 17.6287 59.7071 17.6213C58.1691 17.6139 57.2072 18.6079 57.1948 20.2745C57.1775 22.8709 57.1997 28.9934 57.1997 28.9934H56.2947L52.9466 28.9984L52.1628 28.9934C52.1628 28.9934 52.1751 23.049 52.1751 20.4773C52.1751 18.4991 50.8844 17.3641 48.9383 17.6361C47.8256 17.7919 47.0219 18.8972 47.0096 20.3512C46.9923 22.9476 46.9972 25.544 46.9947 28.1403C46.9947 28.3802 46.9947 28.6201 46.9947 28.9836C45.9191 28.9836 44.8879 28.9836 43.8568 28.9836H41.9775C41.9751 25.7566 41.98 20.643 41.9775 17.416C41.9775 17.2108 41.9553 17.0031 41.7698 16.7484C41.4681 17.3542 41.164 17.96 40.8524 18.5857C40.2837 18.4249 39.7644 18.2568 39.2328 18.1356C37.0098 17.6287 35.3234 18.4892 35.039 20.9521C34.8981 22.1761 34.9574 23.4223 34.945 24.6587C34.9327 25.8481 34.9228 27.8016 34.95 28.991H34.2181C33.0559 28.9465 31.8887 28.9761 30.7241 28.9761H30.0391C30.044 24.2482 30.0416 19.0036 30.0416 14.1322H30.049ZM72.5852 21.8398C72.511 23.7364 74.0812 25.544 76.5391 25.2497C78.767 24.9851 79.771 23.4322 79.6745 21.2686C79.5731 19.0332 77.8299 17.6831 75.5376 17.9131C73.73 18.0961 72.4022 19.8616 72.5852 21.8398Z" fill="#0AB568"/>
<path d="M13.3282 14.1667C13.3554 14.7305 13.3752 15.1806 13.4048 15.7765C13.7387 15.6084 13.9983 15.5416 14.1689 15.3809C16.5576 13.1257 20.4991 13.1059 22.957 14.9086C23.0337 14.9654 23.1128 15.0248 23.1969 15.0718C23.3964 15.1834 23.8373 15.2725 23.8373 15.2725V13.9145H24.6187C24.6187 13.9145 25.9219 13.9145 26.5771 13.9145C26.3101 9.10009 21.9358 7.54968 19.0872 8.43986C22.0001 8.56103 24.2379 9.71333 25.4125 12.4828C23.8423 13.6005 21.5871 13.7217 20.2543 11.9165C19.7227 11.197 19.2232 10.4477 18.6743 9.743C18.3058 9.26824 17.8706 8.84539 17.4255 8.35332C19.1218 7.56204 20.875 7.30982 22.7469 7.65106C24.8611 8.03681 25.7191 9.61442 26.3645 11.4393C26.4313 11.4121 26.5005 11.3849 26.5673 11.3577C26.5895 11.1426 26.6711 10.9126 26.6241 10.7098C26.226 8.97645 26.9159 7.55215 27.947 6.27868C29.5617 4.28812 31.7971 3.38063 34.2525 3.01219C35.4197 2.83662 36.619 2.87866 37.8059 2.84899C38.0507 2.84157 38.3004 2.95284 38.4513 2.98499C37.8034 4.71838 37.1803 6.38254 36.5571 8.0467C36.2357 8.90721 35.9686 9.79246 35.5755 10.6184C34.6284 12.6064 32.8777 13.3705 30.8055 13.5189C30.1626 13.5659 29.5074 13.4249 28.857 13.3952C28.3081 13.3705 28.2339 13.0416 28.3031 12.604C28.8916 8.90474 30.7635 6.18719 34.3168 4.75795C34.6902 4.60711 35.0587 4.44391 35.5038 4.2535C34.6507 3.91474 32.1853 4.85191 30.5508 5.99927C27.8234 7.91317 26.8022 10.5714 27.0692 13.9046C27.4377 13.9046 27.816 13.9145 28.1943 13.9022L28.815 13.9046C28.8026 18.4668 28.815 24.1665 28.7927 28.7287C28.7927 28.7287 24.5825 28.7287 23.9264 28.7287C23.9264 28.4048 23.9511 28.1699 23.9189 27.9424C23.8893 27.7174 23.8027 27.5023 23.7409 27.2822C23.5307 27.3663 23.2513 27.391 23.1178 27.5443C22.3166 28.4518 21.2434 28.8054 20.1307 29.0774C18.0165 29.5917 16.1199 29.0007 14.4731 27.7223C11.6319 25.5166 11.078 22.5222 11.7852 19.1642C11.8544 18.8328 11.941 18.5039 12.0102 18.1726C12.0226 18.1083 11.9929 18.0366 11.983 17.9748C11.9261 17.95 11.8816 17.913 11.8396 17.913C9.57455 17.8833 9.90589 17.6706 9.91084 19.6587C9.91579 22.6186 9.94299 25.576 9.9331 28.5359C9.9331 28.6793 9.66604 28.9439 9.52015 28.9488C8.18734 28.981 6.85206 28.9636 5.51677 28.9711C4.95299 28.9735 4.99997 28.573 4.99997 28.2095C4.99997 25.759 4.99997 23.306 5.00491 20.8555C5.00491 20.0544 4.99749 19.2532 5.00986 18.452C5.01728 18.0564 4.87139 17.8734 4.45596 17.8932C3.95152 17.9154 3.44214 17.8981 2.85363 17.8981C2.85363 16.7483 2.83137 15.638 2.88083 14.5327C2.88824 14.3918 3.27152 14.1643 3.49159 14.1519C5.00986 14.0604 5.01975 14.0752 5.00491 12.5446C4.9876 10.8483 4.95793 9.15696 5.48463 7.50764C6.24871 5.11897 8.04886 3.58339 10.5191 3.44739C11.8866 3.37074 13.2021 3.75896 14.4162 4.4266C14.6121 4.53384 14.8992 4.69015 14.8992 4.69015C14.8992 4.69015 14.7272 5.04793 14.6511 5.1981C14.2357 6.01905 13.1856 8.12283 13.1856 8.12283L12.7545 8.00219C12.7545 8.00219 12.3836 7.92553 12.1957 7.8835C11.0607 7.64364 10.2916 8.06401 10.1482 9.21631C9.97266 10.6282 9.96771 12.0624 9.91579 13.4867C9.89848 13.9491 10.1507 14.1791 10.6502 14.1643C11.5181 14.1395 12.3885 14.1569 13.3381 14.1569L13.3282 14.1667ZM16.837 21.4564C16.8691 23.7659 18.1599 25.0147 20.4769 24.9751C22.5515 24.9405 23.9635 23.442 23.9288 21.313C23.8942 19.1345 22.3933 17.8709 19.881 17.9055C18.1476 17.9303 16.8098 19.4881 16.837 21.4539V21.4564Z" fill="#0AB568"/>
<path d="M84.7661 21.4986C84.5609 17.8192 86.9867 15.4379 89.6374 14.3895C92.491 13.2619 95.3618 13.2767 98.1288 14.7307C100.866 16.1699 102.429 18.3953 102.375 21.5481C102.323 24.6538 100.78 26.8818 98.0126 28.222C95.0181 29.6735 91.9767 29.587 88.9723 28.2245C86.7715 27.2255 84.5634 24.8245 84.7636 21.4986H84.7661ZM93.5914 17.9082C91.4623 17.6758 89.8501 19.5971 89.9366 21.4962C90.0331 23.6351 91.3436 24.9778 93.5468 24.9753C95.76 24.9728 97.0359 23.5906 97.0656 21.2687C97.0903 19.2954 95.3717 17.6881 93.5938 17.9082H93.5914Z" fill="#0AB568"/>
</svg>
