<svg width="802" height="180" viewBox="0 0 802 180" fill="none" xmlns="http://www.w3.org/2000/svg">
<g clip-path="url(#clip0)">
<path d="M410.502 42.27C410.502 35.742 408.53 30.166 401.016 30.166C393.468 30.166 391.53 35.742 391.53 42.27C391.53 48.798 393.468 54.374 401.016 54.374C408.53 54.374 410.502 48.798 410.502 42.27ZM406.116 42.27C406.116 45.704 405.674 51.552 401.016 51.552C396.324 51.552 395.916 45.738 395.916 42.27C395.916 38.802 396.324 32.988 401.016 32.988C405.674 32.988 406.116 38.836 406.116 42.27ZM418.337 54V30.54H414.563V54H418.337ZM435.636 54V30.54H431.862V39.754H431.794C430.944 38.258 429.482 37.442 427.748 37.442C423.26 37.442 422.206 42.338 422.206 45.908C422.206 49.648 423.022 54.374 427.748 54.374C429.244 54.374 431.216 53.184 431.794 51.756H431.862V54H435.636ZM431.862 45.908C431.862 47.676 431.42 51.45 429.006 51.45C426.388 51.45 426.218 47.778 426.218 45.908C426.218 43.936 426.286 40.366 429.006 40.366C431.624 40.366 431.862 44.038 431.862 45.908ZM452.296 44.922V44.004C452.296 40.06 450.256 37.442 446.142 37.442C441.314 37.442 439.206 40.468 439.206 45.058C439.206 50.396 441.62 54.374 447.366 54.374C448.896 54.374 450.426 54.204 451.888 53.728V51.11C450.936 51.45 449.814 51.722 448.794 51.722C445.122 51.722 442.708 48.356 442.708 44.922H452.296ZM448.726 42.644H442.81C442.98 41.012 444.238 39.856 445.87 39.856C447.604 39.856 448.726 40.91 448.726 42.644ZM468.952 54V42.78C468.952 39.992 467.66 37.442 464.566 37.442C462.254 37.442 460.622 38.768 459.772 40.842H459.704V37.816H455.93V54H459.704V46.996C459.704 44.82 460.792 40.978 463.512 40.978C463.886 40.978 464.328 41.012 464.6 41.284C465.246 41.896 465.178 43.97 465.178 44.752V54H468.952ZM486.821 45.908C486.821 42.168 485.903 37.442 481.245 37.442C479.477 37.442 477.981 38.258 477.063 39.754H476.995V30.54H473.221V47.132C473.221 51.586 475.397 54.374 479.987 54.374C485.189 54.374 486.821 50.498 486.821 45.908ZM482.809 45.908C482.809 47.812 482.639 51.722 479.987 51.722C476.893 51.722 476.995 48.152 476.995 45.908C476.995 44.038 477.403 39.856 479.987 39.856C482.809 39.856 482.809 43.936 482.809 45.908ZM503.549 54V37.816H499.775V44.82C499.775 46.996 498.687 50.838 495.967 50.838C495.593 50.838 495.151 50.804 494.879 50.532C494.233 49.92 494.301 47.846 494.301 47.064V37.816H490.527V49.036C490.527 51.824 491.819 54.374 494.913 54.374C497.191 54.374 498.857 53.014 499.707 50.974H499.775V54H503.549ZM517.202 41.386V37.442C514.482 37.442 513.224 38.564 511.966 40.808H511.898V37.816H508.124V54H511.898V46.894C511.898 43.086 513.326 41.386 517.202 41.386ZM532.555 55.122V37.816H528.951V39.754H528.883C527.829 38.156 526.673 37.442 524.701 37.442C520.417 37.442 519.159 42.032 519.159 45.534C519.159 49.24 520.077 54 524.701 54C526.537 54 527.965 53.014 528.883 51.484H528.951V54C528.951 56.89 527.965 58.726 524.769 58.726C522.933 58.726 521.335 58.182 519.771 57.298V61.004C521.437 61.412 523.103 61.65 524.837 61.65C529.359 61.65 532.555 60.12 532.555 55.122ZM528.951 45.534C528.951 47.302 528.339 51.076 525.959 51.076C523.341 51.076 523.171 47.438 523.171 45.534C523.171 43.664 523.409 40.366 525.959 40.366C528.407 40.366 528.951 43.664 528.951 45.534ZM541.089 34.28V30.54H537.315V34.28H541.089ZM541.089 54V37.816H537.315V54H541.089ZM555.294 49.512C555.294 44.888 548.188 43.8 548.188 41.658C548.188 40.57 549.854 40.162 550.704 40.162C551.996 40.162 553.186 40.672 554.308 41.25V38.054C553.084 37.714 551.894 37.442 550.636 37.442C547.61 37.442 544.822 38.836 544.822 42.202C544.822 46.486 551.792 48.084 551.792 49.988C551.792 51.28 549.956 51.45 549.004 51.45C547.576 51.45 546.182 51.042 544.89 50.464V53.728C546.284 54.17 547.712 54.374 549.174 54.374C552.336 54.374 555.294 53.116 555.294 49.512ZM571.04 43.358C571.04 39.38 568.83 37.442 564.886 37.442C560.024 37.442 557.474 40.502 557.474 45.194C557.474 50.838 560.364 54.374 566.144 54.374C567.742 54.374 569.34 54.102 570.87 53.626V51.314C569.986 51.62 569.068 51.722 568.15 51.722C563.866 51.722 561.486 48.594 561.486 44.514C561.486 42.576 562.2 40.094 564.58 40.094C566.552 40.094 567.028 41.692 567.028 43.358H571.04ZM586.657 54V42.78C586.657 39.992 585.365 37.442 582.271 37.442C579.959 37.442 578.327 38.768 577.477 40.842H577.409V30.54H573.635V54H577.409V46.996C577.409 44.82 578.497 40.978 581.217 40.978C581.591 40.978 582.033 41.012 582.305 41.284C582.951 41.896 582.883 43.97 582.883 44.752V54H586.657ZM603.37 44.922V44.004C603.37 40.06 601.33 37.442 597.216 37.442C592.388 37.442 590.28 40.468 590.28 45.058C590.28 50.396 592.694 54.374 598.44 54.374C599.97 54.374 601.5 54.204 602.962 53.728V51.11C602.01 51.45 600.888 51.722 599.868 51.722C596.196 51.722 593.782 48.356 593.782 44.922H603.37ZM599.8 42.644H593.884C594.054 41.012 595.312 39.856 596.944 39.856C598.678 39.856 599.8 40.91 599.8 42.644ZM395.712 90V66.54H393.06V90H395.712ZM413.113 90V78.44C413.113 75.89 411.821 73.442 408.965 73.442C406.143 73.442 404.715 75.074 403.899 77.556H403.831V73.816H401.519V90H403.831V83.336C403.831 80.786 405.191 75.754 408.421 75.754C411.073 75.754 410.801 79.188 410.801 81.024V90H413.113ZM429.467 90V66.54H427.155V76.468H427.087C426.407 74.496 424.945 73.442 422.837 73.442C418.417 73.442 417.329 78.542 417.329 82.044C417.329 85.818 418.213 90.374 422.871 90.374C424.809 90.374 426.543 89.116 427.087 87.246H427.155V90H429.467ZM427.155 81.976C427.155 84.22 426.237 88.436 423.347 88.436C420.355 88.436 419.981 84.73 419.981 82.486C419.981 80.242 420.253 75.38 423.415 75.38C426.475 75.38 427.155 79.698 427.155 81.976ZM446.312 90V73.816H444V80.48C444 83.03 442.674 88.062 439.444 88.062C436.792 88.062 437.064 84.628 437.064 82.792V73.816H434.752V85.376C434.752 87.96 436.044 90.374 438.9 90.374C441.688 90.374 443.184 88.742 443.932 86.26H444V90H446.312ZM460.864 85.478C460.864 82.826 459.062 82.044 457.09 80.854L455.73 80.038C454.778 79.46 452.806 78.848 452.806 77.488C452.806 75.924 454.812 75.38 456.07 75.38C457.294 75.38 458.688 75.686 459.844 76.128V73.986C458.586 73.68 457.362 73.442 456.036 73.442C453.248 73.442 450.494 74.53 450.494 77.726C450.494 80.208 452.262 81.092 454.166 82.112L455.628 82.894C456.818 83.54 458.552 84.22 458.552 85.818C458.552 87.96 456.342 88.436 454.608 88.436C453.18 88.436 451.786 88.062 450.426 87.586V89.694C451.854 90.136 453.35 90.374 454.846 90.374C458.076 90.374 460.864 89.116 460.864 85.478ZM472.258 75.754V73.816H467.906V68.58L465.594 70.042V73.816H462.942V75.754H465.594V86.192C465.594 89.32 467.056 90.374 470.082 90.374C470.762 90.374 471.442 90.306 472.122 90.204V88.13C471.544 88.334 471.204 88.436 470.558 88.436C468.722 88.436 467.906 87.45 467.906 85.716V75.754H472.258ZM483.58 75.924V73.442C480.996 73.442 479.194 74.598 478.174 76.944H478.106V73.816H475.794V90H478.106V83.302C478.106 79.766 479.398 75.924 483.58 75.924ZM489.409 69.6V66.54H486.349V69.6H489.409ZM489.035 90V73.816H486.723V90H489.035ZM505.6 80.378V79.596C505.6 76.026 503.73 73.442 499.956 73.442C495.196 73.442 493.632 77.148 493.632 81.364C493.632 86.6 495.91 90.374 501.52 90.374C502.778 90.374 504.036 90.272 505.226 89.898V87.994C504.138 88.266 503.152 88.436 502.03 88.436C498.052 88.436 496.284 84.866 496.284 81.33V80.378H505.6ZM502.948 78.44H496.454C496.794 76.672 497.95 75.38 499.854 75.38C501.622 75.38 502.948 76.672 502.948 78.44ZM519.211 82.69V80.378H508.875V82.69H519.211ZM543.896 90V73.816H541.584V80.48C541.584 83.03 540.258 88.062 537.028 88.062C534.376 88.062 534.648 84.628 534.648 82.792V73.816H532.336V85.376C532.336 87.96 533.628 90.374 536.484 90.374C539.272 90.374 540.768 88.742 541.516 86.26H541.584V90H543.896ZM561.066 90V78.44C561.066 75.89 559.774 73.442 556.918 73.442C554.096 73.442 552.668 75.074 551.852 77.556H551.784V73.816H549.472V90H551.784V83.336C551.784 80.786 553.144 75.754 556.374 75.754C559.026 75.754 558.754 79.188 558.754 81.024V90H561.066ZM577.42 90V66.54H575.108V76.468H575.04C574.36 74.496 572.898 73.442 570.79 73.442C566.37 73.442 565.282 78.542 565.282 82.044C565.282 85.818 566.166 90.374 570.824 90.374C572.762 90.374 574.496 89.116 575.04 87.246H575.108V90H577.42ZM575.108 81.976C575.108 84.22 574.19 88.436 571.3 88.436C568.308 88.436 567.934 84.73 567.934 82.486C567.934 80.242 568.206 75.38 571.368 75.38C574.428 75.38 575.108 79.698 575.108 81.976ZM606.804 90V66.54H604.152V76.706H594.462V66.54H591.81V90H594.462V78.916H604.152V90H606.804ZM622.761 90V78.644C622.761 75.04 620.993 73.442 617.321 73.442C614.431 73.442 611.575 74.7 611.507 77.964H614.091C614.329 76.026 615.485 75.38 617.389 75.38C620.619 75.38 620.449 77.964 620.449 80.378V80.718C619.905 80.82 619.395 80.82 618.851 80.82C615.859 80.82 611.133 82.146 611.133 85.852C611.133 88.606 612.697 90.374 615.485 90.374C617.287 90.374 619.565 89.558 620.449 87.858H620.517V90H622.761ZM620.449 82.656C620.449 84.016 620.381 84.696 619.837 85.92C619.157 87.382 617.695 88.436 616.063 88.436C614.703 88.436 613.785 87.45 613.785 86.09C613.785 83.506 617.015 82.656 619.089 82.656H620.449ZM639.757 90V78.44C639.757 75.89 638.465 73.442 635.609 73.442C632.787 73.442 631.359 75.074 630.543 77.556H630.475V73.816H628.163V90H630.475V83.336C630.475 80.786 631.835 75.754 635.065 75.754C637.717 75.754 637.445 79.188 637.445 81.024V90H639.757ZM656.111 90V66.54H653.799V76.468H653.731C653.051 74.496 651.589 73.442 649.481 73.442C645.061 73.442 643.973 78.542 643.973 82.044C643.973 85.818 644.857 90.374 649.515 90.374C651.453 90.374 653.187 89.116 653.731 87.246H653.799V90H656.111ZM653.799 81.976C653.799 84.22 652.881 88.436 649.991 88.436C646.999 88.436 646.625 84.73 646.625 82.486C646.625 80.242 646.897 75.38 650.059 75.38C653.119 75.38 653.799 79.698 653.799 81.976ZM672.413 80.378V79.596C672.413 76.026 670.543 73.442 666.769 73.442C662.009 73.442 660.445 77.148 660.445 81.364C660.445 86.6 662.723 90.374 668.333 90.374C669.591 90.374 670.849 90.272 672.039 89.898V87.994C670.951 88.266 669.965 88.436 668.843 88.436C664.865 88.436 663.097 84.866 663.097 81.33V80.378H672.413ZM669.761 78.44H663.267C663.607 76.672 664.763 75.38 666.667 75.38C668.435 75.38 669.761 76.672 669.761 78.44ZM679.156 90V66.54H676.844V90H679.156ZM693.817 85.478C693.817 82.826 692.015 82.044 690.043 80.854L688.683 80.038C687.731 79.46 685.759 78.848 685.759 77.488C685.759 75.924 687.765 75.38 689.023 75.38C690.247 75.38 691.641 75.686 692.797 76.128V73.986C691.539 73.68 690.315 73.442 688.989 73.442C686.201 73.442 683.447 74.53 683.447 77.726C683.447 80.208 685.215 81.092 687.119 82.112L688.581 82.894C689.771 83.54 691.505 84.22 691.505 85.818C691.505 87.96 689.295 88.436 687.561 88.436C686.133 88.436 684.739 88.062 683.379 87.586V89.694C684.807 90.136 686.303 90.374 687.799 90.374C691.029 90.374 693.817 89.116 693.817 85.478ZM708.951 90L702.423 80.99L708.237 73.816H705.415L699.805 80.65H699.737V66.54H697.425V90H699.737V81.364H699.805L706.095 90H708.951ZM722.238 90V78.644C722.238 75.04 720.47 73.442 716.798 73.442C713.908 73.442 711.052 74.7 710.984 77.964H713.568C713.806 76.026 714.962 75.38 716.866 75.38C720.096 75.38 719.926 77.964 719.926 80.378V80.718C719.382 80.82 718.872 80.82 718.328 80.82C715.336 80.82 710.61 82.146 710.61 85.852C710.61 88.606 712.174 90.374 714.962 90.374C716.764 90.374 719.042 89.558 719.926 87.858H719.994V90H722.238ZM719.926 82.656C719.926 84.016 719.858 84.696 719.314 85.92C718.634 87.382 717.172 88.436 715.54 88.436C714.18 88.436 713.262 87.45 713.262 86.09C713.262 83.506 716.492 82.656 718.566 82.656H719.926ZM747.394 90V78.44C747.394 75.89 746.102 73.442 743.246 73.442C740.968 73.442 739.336 75.074 738.656 77.148H738.588C738.418 74.734 736.922 73.442 734.508 73.442C731.856 73.442 730.632 75.244 729.986 77.556H729.918V73.816H727.606V90H729.918V83.336C729.918 81.092 731.006 75.754 733.964 75.754C736.616 75.754 736.344 79.188 736.344 81.024V90H738.656V83.336C738.656 81.092 739.71 75.754 742.702 75.754C745.354 75.754 745.082 79.188 745.082 81.024V90H747.394ZM772.595 90V78.44C772.595 75.89 771.303 73.442 768.447 73.442C766.169 73.442 764.537 75.074 763.857 77.148H763.789C763.619 74.734 762.123 73.442 759.709 73.442C757.057 73.442 755.833 75.244 755.187 77.556H755.119V73.816H752.807V90H755.119V83.336C755.119 81.092 756.207 75.754 759.165 75.754C761.817 75.754 761.545 79.188 761.545 81.024V90H763.857V83.336C763.857 81.092 764.911 75.754 767.903 75.754C770.555 75.754 770.283 79.188 770.283 81.024V90H772.595ZM788.922 80.378V79.596C788.922 76.026 787.052 73.442 783.278 73.442C778.518 73.442 776.954 77.148 776.954 81.364C776.954 86.6 779.232 90.374 784.842 90.374C786.1 90.374 787.358 90.272 788.548 89.898V87.994C787.46 88.266 786.474 88.436 785.352 88.436C781.374 88.436 779.606 84.866 779.606 81.33V80.378H788.922ZM786.27 78.44H779.776C780.116 76.672 781.272 75.38 783.176 75.38C784.944 75.38 786.27 76.672 786.27 78.44ZM800.936 75.924V73.442C798.352 73.442 796.55 74.598 795.53 76.944H795.462V73.816H793.15V90H795.462V83.302C795.462 79.766 796.754 75.924 800.936 75.924Z" fill="black"/>
<path fill-rule="evenodd" clip-rule="evenodd" d="M357.99 180L177.872 179.998C198.21 122.045 198.261 58.0287 177.868 0L360 0.00211668V180" fill="#003366"/>
<path fill-rule="evenodd" clip-rule="evenodd" d="M337.563 33.2232C339.001 31.6191 338.864 30.3189 337.259 30.3189H329.376C327.773 30.3189 326.968 30.1452 324.386 32.7251L302.371 56.5597L302.311 33.2232C302.311 31.6191 301.01 30.3189 299.404 30.3189H294.053C292.448 30.3189 291.145 31.6191 291.145 33.2232L291.143 86.2382C291.143 87.8403 292.444 89.1405 294.049 89.1405H299.425C301.03 89.1405 302.331 87.8403 302.331 86.2382L302.336 72.3757L312.116 61.8145L327.216 86.2382C328.199 87.8403 329.578 89.1405 331.184 89.1405H339.249C340.856 89.1405 341.361 87.8403 340.378 86.2382L319.55 53.5168L337.563 33.2232Z" fill="white"/>
<path fill-rule="evenodd" clip-rule="evenodd" d="M208.431 86.2357C208.431 87.8398 209.732 89.1401 211.335 89.1401H217.216C218.823 89.1401 220.124 87.8398 220.124 86.2357L220.149 33.2228C220.149 31.6186 218.848 30.3184 217.243 30.3184H211.366C209.759 30.3184 208.46 31.6186 208.46 33.2228L208.431 86.2357Z" fill="white"/>
<path fill-rule="evenodd" clip-rule="evenodd" d="M267.332 33.2228C267.332 31.6186 268.633 30.3184 270.238 30.3184H276.048C277.656 30.3184 278.957 31.6186 278.957 33.2228L278.949 86.2377C278.949 87.8398 277.647 89.1401 276.042 89.1401H270.271C268.666 89.1401 267.365 87.8398 267.365 86.2377L267.344 64.4H243.957L243.961 86.2377C243.961 87.8398 242.662 89.1401 241.055 89.1401H235.246C233.641 89.1401 232.34 87.8398 232.34 86.2377L232.342 33.2228C232.342 31.6186 233.643 30.3184 235.248 30.3184H241.075C242.678 30.3184 243.982 31.6186 243.982 33.2228L243.957 54.5499H267.344L267.332 33.2228Z" fill="white"/>
<path fill-rule="evenodd" clip-rule="evenodd" d="M180.433 0L0 0.00211668V180L180.431 179.998C200.802 122.045 200.857 58.0287 180.433 0Z" fill="#CCD7E6"/>
<path fill-rule="evenodd" clip-rule="evenodd" d="M48.2832 29.0117H132.15V78.1741L131.72 86.606C131.72 110.115 113.712 128.551 90.6829 128.837V128.909H90.109C66.7927 128.909 48.4984 110.258 48.4984 86.5346L48.2832 79.2459V29.0117ZM89.7503 30.0121H49.2876V39.373H89.7503V30.0121ZM89.7503 49.234H49.2876V58.8807H89.7503V49.234ZM89.7503 68.7418H49.2876V78.1741H89.7503V68.7418ZM90.7546 118.333V127.98C100.655 127.837 109.623 124.264 116.582 118.333H90.7546ZM90.6829 108.472H124.832C126.626 105.471 128.061 102.255 129.065 98.8251H90.6829V108.472ZM130.715 88.9641C130.787 88.1781 130.787 87.392 130.787 86.606L131.146 79.103H90.6829V88.9641H130.715ZM114.143 34.3711H107.614L108.69 48.591L95.7049 47.5192V54.0217L108.69 52.9499L107.542 66.9554H108.834L110.842 73.8153L112.708 66.9554H114.214L113.067 52.9499L125.98 54.0217V47.5192L113.067 48.591L114.143 34.3711ZM73.8953 82.6045H67.295L68.3711 96.8244L55.3857 95.7526V102.255L68.3711 101.183L67.2232 115.189H68.5146L70.5951 122.049L72.3887 115.189H73.8953L72.7474 101.183L85.7327 102.255V95.7526L72.7474 96.8244L73.8953 82.6045Z" fill="#003366"/>
</g>
<defs>
<clipPath id="clip0">
<rect width="802" height="180" fill="white"/>
</clipPath>
</defs>
</svg>
