<?xml version="1.0" encoding="UTF-8"?>
<svg xmlns="http://www.w3.org/2000/svg" version="1.2" viewBox="0 0 297 50" width="297" height="50">
  <title>download-svg</title>
  <style>
		.s0 { fill: #000000 } 
		.s1 { fill: #8e734a } 
	</style>
  <path id="Layer" fill-rule="evenodd" class="s0" d="m289.5 12.6h5.9v27.1h-5.9zm-4.4 8.4v18.7h-5.9v-2.6c-0.9 1.7-3.3 3.1-5.7 3.1-5.4 0-9.1-4.3-9.1-9.8 0-5.6 3.7-9.8 9.1-9.8 2.4 0 4.8 1.4 5.7 3.1v-2.7zm-5.9 9.4c0-2.7-2-4.8-4.5-4.8-2.5 0-4.4 2.1-4.4 4.8 0 2.6 1.9 4.7 4.4 4.7 2.5 0 4.5-2.1 4.5-4.7zm-16.2 4.8v4.5c-0.9 0.2-2.2 0.3-3.9 0.3-2.8 0-6.7-0.3-6.7-6.6v-7.9h-2.9v-4.5h2.9v-5.5h5.9v5.5h4.3v4.5h-4.3v6.6c0 2.8 1.1 3.2 2.6 3.2 0.7 0 1.6-0.1 2.1-0.1q0 0 0 0zm-21.7-14.2h5.9v18.7h-5.9zm2.9-2.4c-2.1 0-3.8-1.7-3.8-3.8 0-2.1 1.7-3.7 3.8-3.7 2.1 0 3.8 1.6 3.8 3.7 0 2.1-1.7 3.8-3.8 3.8zm-21 5.1c0.8-1.7 3.2-3.2 5.7-3.2 5.4 0 9.1 4.3 9.1 9.8 0 5.6-3.7 9.8-9.1 9.8-2.5 0-4.9-1.4-5.7-3.1v11.1h-6v-27.1h6zm8.9 6.7c0-2.7-2-4.8-4.5-4.8-2.5 0-4.4 2.1-4.4 4.8 0 2.6 1.9 4.7 4.4 4.7 2.5 0 4.5-2.1 4.5-4.7zm-19.3-9.4v18.7h-5.9v-2.7c-0.9 1.7-3.3 3.1-5.7 3.1-5.4 0-9.1-4.2-9.1-9.7 0-5.6 3.7-9.8 9.1-9.8 2.4 0 4.8 1.4 5.7 3.1v-2.7zm-5.9 9.4c0-2.7-2-4.8-4.5-4.8-2.4 0-4.4 2.1-4.4 4.8 0 2.6 2 4.7 4.4 4.7 2.5 0 4.5-2.1 4.5-4.7zm-30.8-2.2v11.5h-6.3v-27.1h6.3v11.5l8.8-11.5h7.5l-10.7 13.5 10.7 13.6h-7.5zm-33.5 3.5c0.2 2.3 1.1 4.2 4.2 4.2 2 0 3-0.9 3.4-2.1h5.8c-0.5 3.5-3.8 6.3-9.2 6.3-6.5 0-10-4-10-9.8 0-5.4 3.4-9.8 9.9-9.8 5.8 0 9.6 3.9 9.6 8.5 0 0.8 0 1.6-0.2 2.7zm0-3.4h7.8c0-2.4-1.6-3.9-3.8-3.9-2.4 0-4 1.4-4 3.9zm-14.9 11.3v-10c0-2.5-0.8-4-2.8-4-1.8 0-3.2 1.1-3.2 4.7v9.3h-5.7v-10.1c0-2.5-0.8-3.9-2.8-3.9-1.8 0-3.2 1.1-3.2 4.8v9.2h-5.7v-18.6h5.7v2.7c0.8-1.7 2.8-3.2 5.4-3.2 3.2 0 4.9 1.5 5.6 3.4 1-1.9 3.1-3.4 5.9-3.4 5.4 0 6.5 3.7 6.5 7.6v11.5c0 0-5.7 0-5.7 0zm-33.8-18.6h6v18.6h-6zm3-2.4c-2.1 0-3.8-1.7-3.8-3.8 0-2 1.7-3.7 3.8-3.7 2.1 0 3.8 1.7 3.8 3.7 0 2.1-1.7 3.8-3.8 3.8zm-5.1 7.8c-0.8-0.2-1.3-0.3-2.1-0.3-3.2 0-5.4 1.7-5.4 6.3v7.3h-5.9v-18.7h5.9v3.1c0.9-1.8 3.1-3.4 5.7-3.4 0.8 0 1.3 0.1 1.8 0.3 0 0 0 5.4 0 5.4zm-37-13.8h11.3c6 0 9.9 4.5 9.9 9.8 0 5.3-3.9 9.8-9.9 9.8h-5.1v7.5h-6.2zm14.9 9.8c0-2.5-1.7-4.7-4.4-4.7h-4.3v9.4h4.3c2.7 0 4.4-2.2 4.4-4.7z"></path>
  <path id="Layer" class="s1" d="m1.6 39.7h39.3v-37.8c-5.4 18.6-20.4 33.1-39.3 37.8z"></path>
</svg>
