<?xml version="1.0" encoding="utf-8"?>
<!-- Generator: Adobe Illustrator 16.0.3, SVG Export Plug-In . SVG Version: 6.00 Build 0)  -->
<!DOCTYPE svg PUBLIC "-//W3C//DTD SVG 1.1//EN" "http://www.w3.org/Graphics/SVG/1.1/DTD/svg11.dtd">
<svg version="1.1" id="Ebene_1" xmlns="http://www.w3.org/2000/svg" xmlns:xlink="http://www.w3.org/1999/xlink" x="0px" y="0px"
	 width="150.563px" height="71.443px" viewBox="0 0 150.563 71.443" enable-background="new 0 0 150.563 71.443"
	 xml:space="preserve">
<g>
	<polygon fill="#CCCCCC" points="31.82,28.431 29.301,28.431 20.353,49.381 45.881,49.381 36.61,71.172 39.088,71.151 
		49.685,46.344 24.055,46.344 31.82,28.431 	"/>
	<path fill="none" stroke="#124395" stroke-width="0.7331" stroke-miterlimit="3.8637" d="M63.97,0.833L53.21,25.937 M44.39,46.63
		L33.906,71.132 M59.182,0.833l-10.76,25.104 M39.602,46.63L29.118,71.132 M54.394,0.833l-10.76,25.104 M34.814,46.63L24.33,71.132
		 M49.606,0.833l-10.76,25.104 M30.026,46.63L19.542,71.132 M44.818,0.833l-10.76,25.104 M25.238,46.63L14.754,71.132 M40.03,0.833
		L29.27,25.937 M20.45,46.63L9.966,71.132 M35.242,0.833l-10.76,25.104 M15.662,46.63L5.178,71.132 M30.454,0.833l-10.76,25.104
		 M10.874,46.63L0.39,71.132"/>
	<polygon fill="#DADADA" points="58.252,25.569 67.849,3.191 65.301,3.191 55.746,25.567 58.252,25.569 	"/>
	<polyline fill="none" stroke="#E40520" stroke-width="1.6097" stroke-miterlimit="3.8637" points="90.375,0.833 68.792,0.833 
		58.069,25.937 32.854,25.937 24.015,46.63 49.23,46.63 38.765,71.132 	"/>
	<path fill="#124395" d="M35.666,38.113h0.552c0.312,1.428,0.813,2.466,1.505,3.114c0.698,0.647,1.496,0.972,2.394,0.972
		c0.873,0,1.493-0.221,1.861-0.664c0.368-0.448,0.552-0.919,0.552-1.412c0-0.573-0.193-1.04-0.58-1.402
		c-0.256-0.236-0.77-0.545-1.543-0.926l-1.244-0.617c-1.234-0.61-2.104-1.215-2.609-1.814c-0.505-0.598-0.757-1.337-0.757-2.216
		c0-0.936,0.333-1.808,1-2.619c0.673-0.811,1.702-1.215,3.086-1.216c0.705,0,1.384,0.106,2.039,0.318
		c0.661,0.212,1.038,0.318,1.131,0.318c0.212,0,0.358-0.059,0.439-0.178c0.081-0.125,0.146-0.287,0.196-0.486h0.571v4.17h-0.533
		c-0.256-0.966-0.708-1.798-1.356-2.497c-0.643-0.698-1.425-1.047-2.347-1.047c-0.648,0-1.163,0.178-1.543,0.533
		c-0.375,0.349-0.562,0.776-0.562,1.281c0,0.605,0.178,1.057,0.533,1.356c0.349,0.306,1.125,0.754,2.329,1.346l1.44,0.71
		c0.642,0.318,1.153,0.671,1.534,1.058c0.711,0.723,1.066,1.602,1.066,2.637c0,0.967-0.383,1.88-1.15,2.74
		c-0.761,0.854-1.982,1.28-3.666,1.281c-0.386,0-0.779-0.037-1.178-0.112c-0.393-0.068-0.783-0.178-1.169-0.327l-0.374-0.141
		c-0.087-0.024-0.171-0.043-0.252-0.056c-0.082-0.02-0.15-0.028-0.206-0.028c-0.2,0-0.337,0.06-0.412,0.178
		c-0.075,0.112-0.14,0.274-0.196,0.486h-0.552V38.113L35.666,38.113z"/>
	<path fill="#124395" d="M50.792,33.764v0.467c-0.218,0.019-0.396,0.066-0.533,0.141c-0.138,0.068-0.206,0.212-0.206,0.43
		c0,0.075,0.009,0.146,0.028,0.215c0.019,0.068,0.057,0.175,0.112,0.318l1.422,3.75h0.103l1.244-3.152
		c0-0.043-0.05-0.23-0.149-0.561c-0.1-0.337-0.184-0.57-0.252-0.702c-0.1-0.174-0.196-0.283-0.29-0.327
		c-0.087-0.043-0.271-0.081-0.552-0.112v-0.467h4.479v0.467c-0.274,0.013-0.496,0.047-0.664,0.103
		c-0.162,0.056-0.243,0.166-0.243,0.327c0,0.094,0.009,0.203,0.028,0.327c0.024,0.119,0.068,0.28,0.131,0.486l0.973,3.433h0.112
		l1.375-3.656c0.019-0.063,0.034-0.122,0.047-0.178c0.012-0.056,0.018-0.109,0.019-0.159c0-0.268-0.081-0.442-0.243-0.523
		c-0.156-0.081-0.387-0.134-0.692-0.159v-0.467h2.6v0.467c-0.231,0.044-0.415,0.125-0.552,0.243c-0.131,0.112-0.265,0.35-0.402,0.71
		l-2.974,7.669h-0.439l-1.936-5.808h-0.084l-2.329,5.808h-0.467l-2.833-7.163c-0.237-0.592-0.412-0.97-0.524-1.132
		c-0.112-0.168-0.299-0.278-0.561-0.328v-0.467H50.792L50.792,33.764z"/>
	<path fill-rule="evenodd" clip-rule="evenodd" fill="#124395" d="M62.214,29.79c0.293-0.293,0.645-0.439,1.057-0.439
		c0.405,0,0.751,0.146,1.038,0.439c0.293,0.287,0.439,0.636,0.439,1.047s-0.146,0.764-0.439,1.057
		c-0.287,0.287-0.633,0.43-1.038,0.43c-0.412,0-0.764-0.143-1.057-0.43c-0.287-0.292-0.43-0.645-0.43-1.057
		S61.927,30.077,62.214,29.79L62.214,29.79z M60.942,42.125c0.336-0.057,0.567-0.141,0.692-0.253c0.187-0.168,0.28-0.47,0.28-0.906
		v-5.63c0-0.387-0.065-0.648-0.196-0.786c-0.131-0.143-0.39-0.249-0.776-0.318v-0.467h3.675v7.275c0,0.418,0.062,0.686,0.187,0.805
		c0.125,0.118,0.358,0.212,0.702,0.28v0.458h-4.563V42.125L60.942,42.125z"/>
	<path fill="#124395" d="M67.016,39.683h0.533c0.187,0.917,0.536,1.565,1.047,1.945c0.511,0.374,1.035,0.562,1.571,0.562
		c0.492,0,0.854-0.109,1.084-0.327c0.231-0.225,0.346-0.518,0.346-0.879c0-0.343-0.125-0.636-0.374-0.879
		c-0.137-0.132-0.359-0.271-0.664-0.422l-1.421-0.691c-0.748-0.368-1.284-0.767-1.608-1.197c-0.331-0.43-0.496-0.938-0.496-1.524
		c0-0.741,0.258-1.381,0.776-1.917c0.517-0.542,1.24-0.813,2.169-0.813c0.405,0,0.835,0.069,1.291,0.206
		c0.455,0.131,0.738,0.196,0.851,0.196c0.156,0,0.265-0.031,0.327-0.093c0.068-0.068,0.125-0.162,0.168-0.281h0.421v2.768h-0.486
		c-0.181-0.648-0.477-1.168-0.889-1.562c-0.412-0.393-0.892-0.589-1.44-0.589c-0.424,0-0.742,0.119-0.954,0.355
		c-0.206,0.237-0.309,0.493-0.309,0.767c0,0.225,0.094,0.448,0.281,0.673c0.181,0.231,0.523,0.468,1.029,0.711l1.047,0.505
		c0.648,0.313,1.122,0.614,1.421,0.907c0.498,0.499,0.748,1.113,0.748,1.843c0,0.71-0.259,1.374-0.776,1.991
		c-0.511,0.611-1.281,0.916-2.31,0.917c-0.256,0-0.515-0.028-0.776-0.084c-0.255-0.051-0.574-0.141-0.954-0.271l-0.328-0.112
		c-0.119-0.043-0.193-0.068-0.225-0.075c-0.025-0.006-0.059-0.009-0.103-0.009c-0.106,0-0.2,0.044-0.281,0.131
		c-0.075,0.081-0.162,0.221-0.262,0.421h-0.458V39.683L67.016,39.683z"/>
	<path fill="#124395" d="M75.043,39.683h0.533c0.188,0.917,0.536,1.565,1.047,1.945c0.512,0.374,1.035,0.562,1.572,0.562
		c0.492,0,0.854-0.109,1.084-0.327c0.23-0.225,0.346-0.518,0.346-0.879c0-0.343-0.125-0.636-0.373-0.879
		c-0.139-0.132-0.359-0.271-0.664-0.422l-1.422-0.691c-0.748-0.368-1.285-0.767-1.609-1.197c-0.33-0.43-0.495-0.938-0.495-1.524
		c0-0.741,0.259-1.381,0.776-1.917c0.518-0.542,1.24-0.813,2.17-0.813c0.404,0,0.836,0.069,1.291,0.206
		c0.455,0.131,0.738,0.196,0.85,0.196c0.156,0,0.266-0.031,0.328-0.093c0.068-0.068,0.125-0.162,0.168-0.281h0.422v2.768H80.58
		c-0.182-0.648-0.479-1.168-0.889-1.562c-0.412-0.393-0.893-0.589-1.441-0.589c-0.424,0-0.742,0.119-0.953,0.355
		c-0.205,0.237-0.309,0.493-0.309,0.767c0,0.225,0.094,0.448,0.281,0.673c0.18,0.231,0.523,0.468,1.027,0.711l1.049,0.505
		c0.646,0.313,1.121,0.614,1.42,0.907c0.5,0.499,0.748,1.113,0.748,1.843c0,0.71-0.258,1.374-0.775,1.991
		c-0.512,0.611-1.281,0.916-2.311,0.917c-0.254,0-0.514-0.028-0.775-0.084c-0.256-0.051-0.574-0.141-0.953-0.271l-0.328-0.112
		c-0.119-0.043-0.193-0.068-0.225-0.075c-0.025-0.006-0.059-0.009-0.104-0.009c-0.105,0-0.199,0.044-0.279,0.131
		c-0.076,0.081-0.163,0.221-0.262,0.421h-0.458V39.683L75.043,39.683z"/>
	<path fill="#124395" d="M88.611,38.113h0.551c0.313,1.428,0.814,2.466,1.506,3.114c0.699,0.647,1.496,0.972,2.395,0.972
		c0.873,0,1.494-0.221,1.861-0.664c0.367-0.448,0.551-0.919,0.551-1.412c0-0.573-0.193-1.04-0.578-1.402
		c-0.256-0.236-0.771-0.545-1.545-0.926l-1.242-0.617c-1.234-0.61-2.105-1.215-2.609-1.814c-0.506-0.598-0.758-1.337-0.758-2.216
		c0-0.936,0.334-1.808,1-2.619c0.674-0.811,1.703-1.215,3.086-1.216c0.705,0,1.385,0.106,2.039,0.318
		c0.66,0.212,1.037,0.318,1.133,0.318c0.211,0,0.357-0.059,0.439-0.178c0.08-0.125,0.146-0.287,0.195-0.486h0.57v4.17h-0.533
		c-0.256-0.966-0.707-1.798-1.355-2.497c-0.643-0.698-1.426-1.047-2.348-1.047c-0.648,0-1.162,0.178-1.543,0.533
		c-0.373,0.349-0.561,0.776-0.561,1.281c0,0.605,0.178,1.057,0.533,1.356c0.348,0.306,1.125,0.754,2.328,1.346l1.439,0.71
		c0.643,0.318,1.154,0.671,1.535,1.058c0.711,0.723,1.064,1.602,1.064,2.637c0,0.967-0.383,1.88-1.15,2.74
		c-0.76,0.854-1.982,1.28-3.664,1.281c-0.387,0-0.779-0.037-1.18-0.112c-0.393-0.068-0.781-0.178-1.168-0.327l-0.375-0.141
		c-0.088-0.024-0.172-0.043-0.252-0.056c-0.082-0.02-0.15-0.028-0.205-0.028c-0.201,0-0.338,0.06-0.412,0.178
		c-0.074,0.112-0.141,0.274-0.197,0.486h-0.551V38.113L88.611,38.113z"/>
	<path fill="#124395" d="M99.482,42.125c0.348-0.044,0.604-0.138,0.766-0.28c0.17-0.15,0.254-0.442,0.254-0.879v-9.754
		c0-0.38-0.07-0.645-0.207-0.795c-0.137-0.156-0.408-0.258-0.813-0.309V29.64h3.703v5.386c0.393-0.474,0.805-0.838,1.234-1.094
		c0.436-0.262,0.926-0.393,1.469-0.393c0.734,0,1.342,0.215,1.822,0.645c0.48,0.424,0.721,1.151,0.721,2.179v4.602
		c0,0.43,0.072,0.713,0.215,0.851c0.15,0.131,0.396,0.233,0.738,0.309v0.458h-4.498v-0.458c0.344-0.068,0.576-0.162,0.701-0.28
		c0.125-0.119,0.188-0.387,0.188-0.805v-4.639c0-0.436-0.043-0.763-0.131-0.981c-0.15-0.393-0.445-0.589-0.889-0.589
		c-0.33,0-0.674,0.153-1.027,0.458c-0.35,0.305-0.525,0.514-0.525,0.626v5.125c0,0.418,0.063,0.686,0.188,0.805
		c0.125,0.118,0.359,0.212,0.701,0.28v0.458h-4.609V42.125L99.482,42.125z"/>
	<path fill-rule="evenodd" clip-rule="evenodd" fill="#124395" d="M111.98,29.79c0.291-0.293,0.645-0.439,1.057-0.439
		c0.404,0,0.75,0.146,1.037,0.439c0.293,0.287,0.439,0.636,0.439,1.047s-0.146,0.764-0.439,1.057
		c-0.287,0.287-0.633,0.43-1.037,0.43c-0.412,0-0.766-0.143-1.057-0.43c-0.287-0.292-0.432-0.645-0.432-1.057
		S111.693,30.077,111.98,29.79L111.98,29.79z M110.707,42.125c0.338-0.057,0.568-0.141,0.693-0.253
		c0.188-0.168,0.279-0.47,0.279-0.906v-5.63c0-0.387-0.064-0.648-0.195-0.786c-0.131-0.143-0.391-0.249-0.777-0.318v-0.467h3.676
		v7.275c0,0.418,0.063,0.686,0.188,0.805c0.125,0.118,0.357,0.212,0.701,0.28v0.458h-4.564V42.125L110.707,42.125z"/>
	<path fill-rule="evenodd" clip-rule="evenodd" fill="#124395" d="M117.895,34.765c0.785-0.816,1.73-1.225,2.834-1.225
		c0.629,0,1.221,0.166,1.775,0.496c0.555,0.331,0.982,0.789,1.281,1.375c0.225,0.443,0.381,1.017,0.469,1.721
		c0.043,0.331,0.064,0.583,0.064,0.758h-4.881c0.043,0.767,0.168,1.431,0.373,1.992c0.375,1.054,1.031,1.58,1.975,1.58
		c0.447,0,0.871-0.141,1.271-0.421c0.242-0.168,0.545-0.452,0.906-0.851l0.439,0.271c-0.592,0.973-1.277,1.649-2.057,2.029
		c-0.506,0.243-1.086,0.365-1.74,0.365c-0.941,0-1.822-0.371-2.646-1.113c-0.822-0.741-1.234-1.926-1.234-3.553
		C116.725,36.716,117.115,35.576,117.895,34.765L117.895,34.765z M121.963,37.177c-0.014-1.128-0.102-1.916-0.264-2.366
		c-0.162-0.449-0.486-0.673-0.971-0.673c-0.5,0-0.842,0.259-1.029,0.776c-0.182,0.517-0.283,1.272-0.309,2.263H121.963
		L121.963,37.177z"/>
	<path fill="#124395" d="M125.678,42.125c0.338-0.081,0.574-0.187,0.711-0.318c0.145-0.137,0.215-0.417,0.215-0.841v-9.754
		c0-0.405-0.064-0.67-0.195-0.795c-0.131-0.125-0.375-0.227-0.73-0.309V29.64h3.629v11.325c0,0.424,0.068,0.701,0.207,0.832
		c0.137,0.131,0.379,0.24,0.729,0.327v0.458h-4.564V42.125L125.678,42.125z"/>
	<path fill-rule="evenodd" clip-rule="evenodd" fill="#124395" d="M137.195,41.217c0.33-0.368,0.494-0.626,0.494-0.776v-4.656
		c0-0.156-0.139-0.387-0.42-0.693c-0.281-0.305-0.652-0.458-1.113-0.458c-0.68,0-1.141,0.471-1.385,1.412
		c-0.129,0.506-0.195,1.22-0.195,2.143c0,0.984,0.063,1.727,0.188,2.225c0.23,0.904,0.672,1.356,1.328,1.356
		C136.502,41.769,136.871,41.585,137.195,41.217L137.195,41.217z M132.828,34.858c0.723-0.879,1.588-1.319,2.6-1.319
		c0.504,0,0.953,0.125,1.346,0.374c0.244,0.149,0.549,0.418,0.916,0.804v-3.507c0-0.479-0.092-0.776-0.279-0.888
		c-0.188-0.119-0.574-0.19-1.16-0.215V29.64h4.125v11.016c0,0.399,0.074,0.677,0.225,0.833c0.148,0.149,0.441,0.243,0.879,0.28
		v0.439c-1.074,0.106-1.766,0.188-2.076,0.243c-0.313,0.05-0.861,0.184-1.646,0.402v-1.263c-0.361,0.374-0.691,0.651-0.992,0.832
		c-0.473,0.287-0.984,0.43-1.533,0.431c-0.936,0-1.748-0.396-2.439-1.188c-0.693-0.792-1.039-1.867-1.039-3.227
		C131.752,36.925,132.111,35.731,132.828,34.858L132.828,34.858z"/>
	<path fill-rule="evenodd" clip-rule="evenodd" fill="#124395" d="M148.348,32.856c-0.188,0.088-0.402,0.145-0.646,0.173v0.033
		l0.047,0.009c0.461,0.003,0.756,0.354,0.885,1.052c0.055,0.181,0.119,0.271,0.191,0.271c0.059,0,0.102-0.028,0.125-0.084
		c0.025-0.056,0.047-0.154,0.063-0.294h0.275c-0.016,0.243-0.092,0.459-0.225,0.65c-0.131,0.187-0.322,0.28-0.576,0.28
		c-0.223,0-0.395-0.072-0.514-0.215c-0.068-0.081-0.127-0.204-0.174-0.369c-0.023-0.125-0.041-0.22-0.051-0.285
		c-0.01-0.069-0.018-0.134-0.023-0.196c-0.057-0.312-0.195-0.515-0.416-0.608c-0.127-0.053-0.334-0.074-0.617-0.065v0.654
		c0,0.256,0.027,0.426,0.08,0.51c0.053,0.081,0.197,0.122,0.434,0.122v0.355h-1.832v-0.355c0.246,0,0.391-0.056,0.436-0.168
		c0.047-0.112,0.07-0.447,0.07-1.005v-0.617c0-0.252-0.002-0.458-0.006-0.617c-0.004-0.184-0.035-0.312-0.098-0.383
		c-0.059-0.075-0.193-0.113-0.402-0.113v-0.355c0.277,0,0.703,0.001,1.277,0.005c0.576,0,0.902,0.001,0.98,0.004
		c0.275,0.022,0.504,0.07,0.688,0.145c0.365,0.156,0.547,0.407,0.547,0.753C148.865,32.456,148.693,32.694,148.348,32.856
		L148.348,32.856z M145.135,35.142c0.57,0.556,1.256,0.833,2.057,0.833c0.789,0,1.467-0.271,2.035-0.813
		c0.588-0.562,0.883-1.261,0.883-2.1c0-0.804-0.283-1.49-0.852-2.058c-0.57-0.57-1.258-0.855-2.066-0.855
		c-0.813,0-1.506,0.292-2.08,0.874c-0.564,0.571-0.846,1.25-0.846,2.039C144.266,33.882,144.555,34.575,145.135,35.142
		L145.135,35.142z M149.535,30.598c0.697,0.661,1.047,1.482,1.047,2.464c0,0.96-0.338,1.771-1.016,2.432
		c-0.66,0.648-1.451,0.973-2.375,0.973c-0.957,0-1.766-0.334-2.426-1.001c-0.658-0.661-0.986-1.462-0.986-2.403
		c0-0.954,0.34-1.763,1.018-2.427c0.668-0.651,1.467-0.977,2.395-0.978C148.09,29.658,148.871,29.971,149.535,30.598L149.535,30.598
		z M147.59,32.744c0.258-0.09,0.387-0.282,0.387-0.575c0-0.225-0.109-0.387-0.332-0.486c-0.146-0.065-0.316-0.098-0.514-0.098
		c-0.215,0-0.342,0.058-0.383,0.173c-0.037,0.112-0.057,0.469-0.057,1.071C147.131,32.828,147.43,32.8,147.59,32.744L147.59,32.744z
		"/>
</g>
</svg>
